<?xml version="1.0" encoding="UTF-8" standalone="no"?><!DOCTYPE svg PUBLIC "-//W3C//DTD SVG 1.1//EN" "http://www.w3.org/Graphics/SVG/1.1/DTD/svg11.dtd"><!-- Generated by graphviz version 2.40.1 (20161225.0304)
 --><!-- Title: G Pages: 1 --><svg xmlns="http://www.w3.org/2000/svg" xmlns:xlink="http://www.w3.org/1999/xlink" width="494pt" height="271pt" viewBox="0.00 0.00 493.98 271.00">
<g id="graph0" class="graph" transform="scale(1 1) rotate(0) translate(4 267)">
<title>G</title>
<polygon fill="#ffffff" stroke="transparent" points="-4,4 -4,-267 489.9809,-267 489.9809,4 -4,4"/>
<g id="clust1" class="cluster">
<title>cluster_0</title>
<polygon fill="none" stroke="#000000" points="1,-61 1,-201 77.6727,-201 77.6727,-61 1,-61"/>
<text text-anchor="middle" x="39.3363" y="-184.4" font-family="Times,serif" font-size="14.00" fill="#000000">Input layer</text>
</g>
<g id="clust2" class="cluster">
<title>cluster_1</title>
<polygon fill="none" stroke="#ffffff" points="97.6727,-8 97.6727,-255 194.5757,-255 194.5757,-8 97.6727,-8"/>
<text text-anchor="middle" x="146.1242" y="-238.4" font-family="Times,serif" font-size="14.00" fill="#000000">First Layer (1)</text>
</g>
<g id="clust3" class="cluster">
<title>cluster_2</title>
<polygon fill="none" stroke="#ffffff" points="261.2337,-8 261.2337,-255 374.1367,-255 374.1367,-8 261.2337,-8"/>
<text text-anchor="middle" x="317.6852" y="-238.4" font-family="Times,serif" font-size="14.00" fill="#000000">Second Layer (2)</text>
</g>
<g id="clust4" class="cluster">
<title>cluster_3</title>
<polygon fill="none" stroke="#000000" points="395.1367,-91 395.1367,-172 485.9809,-172 485.9809,-91 395.1367,-91"/>
<text text-anchor="middle" x="440.5588" y="-155.4" font-family="Times,serif" font-size="14.00" fill="#000000">Output Layer</text>
</g>
<!-- x0 -->
<g id="node1" class="node">
<title>x0</title>
<ellipse fill="#7fff00" stroke="#7fff00" cx="38.8363" cy="-145" rx="22.6738" ry="22.6738"/>
<text text-anchor="start" x="30.283" y="-141.8" font-family="Times,serif" font-size="14.00" fill="#000000">X</text>
<text text-anchor="start" x="40.3896" y="-141.8" font-family="Times,serif" baseline-shift="sub" font-size="14.00" fill="#000000">0</text>
</g>
<!-- a02 -->
<g id="node3" class="node">
<title>a02</title>
<ellipse fill="#1e90ff" stroke="#1e90ff" cx="145.6242" cy="-190" rx="31.9031" ry="31.9031"/>
<text text-anchor="start" x="130.4636" y="-186.8" font-family="Times,serif" font-size="14.00" fill="#000000">k</text>
<text text-anchor="start" x="137.4636" y="-186.8" font-family="Times,serif" baseline-shift="sub" font-size="14.00" fill="#000000">0</text>
<text text-anchor="start" x="144.4636" y="-186.8" font-family="Times,serif" baseline-shift="super" font-size="14.00" fill="#000000">(1)</text>
</g>
<!-- x0&#45;&gt;a02 -->
<g id="edge1" class="edge">
<title>x0:e-&gt;a02</title>
<path fill="none" stroke="#000000" stroke-width=".5" d="M61.8363,-145C61.8363,-145 85.8708,-157.9082 108.1949,-169.8978"/>
<polygon fill="#000000" stroke="#000000" stroke-width=".5" points="106.7916,-173.1169 117.2574,-174.7651 110.1036,-166.9501 106.7916,-173.1169"/>
</g>
<!-- a12 -->
<g id="node4" class="node">
<title>a12</title>
<ellipse fill="#1e90ff" stroke="#1e90ff" cx="145.6242" cy="-119" rx="31.9031" ry="31.9031"/>
<text text-anchor="start" x="130.4636" y="-115.8" font-family="Times,serif" font-size="14.00" fill="#000000">k</text>
<text text-anchor="start" x="137.4636" y="-115.8" font-family="Times,serif" baseline-shift="sub" font-size="14.00" fill="#000000">1</text>
<text text-anchor="start" x="144.4636" y="-115.8" font-family="Times,serif" baseline-shift="super" font-size="14.00" fill="#000000">(1)</text>
</g>
<!-- x0&#45;&gt;a12 -->
<g id="edge2" class="edge">
<title>x0:e-&gt;a12</title>
<path fill="none" stroke="#000000" stroke-width=".5" d="M61.8363,-145C61.8363,-145 83.7584,-138.1974 105.176,-131.5514"/>
<polygon fill="#000000" stroke="#000000" stroke-width=".5" points="106.387,-134.8403 114.9004,-128.5338 104.3124,-128.1548 106.387,-134.8403"/>
</g>
<!-- a22 -->
<g id="node5" class="node">
<title>a22</title>
<ellipse fill="#1e90ff" stroke="#1e90ff" cx="145.6242" cy="-48" rx="31.9031" ry="31.9031"/>
<text text-anchor="start" x="130.4636" y="-44.8" font-family="Times,serif" font-size="14.00" fill="#000000">k</text>
<text text-anchor="start" x="137.4636" y="-44.8" font-family="Times,serif" baseline-shift="sub" font-size="14.00" fill="#000000">2</text>
<text text-anchor="start" x="144.4636" y="-44.8" font-family="Times,serif" baseline-shift="super" font-size="14.00" fill="#000000">(1)</text>
</g>
<!-- x0&#45;&gt;a22 -->
<g id="edge3" class="edge">
<title>x0:e-&gt;a22</title>
<path fill="none" stroke="#000000" stroke-width=".5" d="M61.8363,-145C61.8363,-145 93.438,-108.4152 117.8259,-80.1817"/>
<polygon fill="#000000" stroke="#000000" stroke-width=".5" points="120.5927,-82.3328 124.481,-72.4772 115.2954,-77.7569 120.5927,-82.3328"/>
</g>
<!-- x1 -->
<g id="node2" class="node">
<title>x1</title>
<ellipse fill="#7fff00" stroke="#7fff00" cx="38.8363" cy="-92" rx="22.6738" ry="22.6738"/>
<text text-anchor="start" x="30.283" y="-88.8" font-family="Times,serif" font-size="14.00" fill="#000000">X</text>
<text text-anchor="start" x="40.3896" y="-88.8" font-family="Times,serif" baseline-shift="sub" font-size="14.00" fill="#000000">1</text>
</g>
<!-- x1&#45;&gt;a02 -->
<g id="edge4" class="edge">
<title>x1:e-&gt;a02</title>
<path fill="none" stroke="#000000" stroke-width=".5" d="M61.8363,-92C61.8363,-92 93.622,-129.1772 118.0384,-157.7351"/>
<polygon fill="#000000" stroke="#000000" stroke-width=".5" points="115.5384,-160.197 124.6971,-165.5233 120.8589,-155.6481 115.5384,-160.197"/>
</g>
<!-- x1&#45;&gt;a12 -->
<g id="edge5" class="edge">
<title>x1:e-&gt;a12</title>
<path fill="none" stroke="#000000" stroke-width=".5" d="M61.8363,-92C61.8363,-92 83.7584,-99.0642 105.176,-105.9659"/>
<polygon fill="#000000" stroke="#000000" stroke-width=".5" points="104.3089,-109.3636 114.9004,-109.0995 106.4559,-102.701 104.3089,-109.3636"/>
</g>
<!-- x1&#45;&gt;a22 -->
<g id="edge6" class="edge">
<title>x1:e-&gt;a22</title>
<path fill="none" stroke="#000000" stroke-width=".5" d="M61.8363,-92C61.8363,-92 85.8708,-79.3786 108.1949,-67.6555"/>
<polygon fill="#000000" stroke="#000000" stroke-width=".5" points="110.0312,-70.6445 117.2574,-62.8964 106.7767,-64.447 110.0312,-70.6445"/>
</g>
<!-- a03 -->
<g id="node6" class="node">
<title>a03</title>
<ellipse fill="#1e90ff" stroke="#1e90ff" cx="317.1852" cy="-48" rx="31.9031" ry="31.9031"/>
<text text-anchor="start" x="302.0246" y="-44.8" font-family="Times,serif" font-size="14.00" fill="#000000">k</text>
<text text-anchor="start" x="309.0246" y="-44.8" font-family="Times,serif" baseline-shift="sub" font-size="14.00" fill="#000000">2</text>
<text text-anchor="start" x="316.0246" y="-44.8" font-family="Times,serif" baseline-shift="super" font-size="14.00" fill="#000000">(2)</text>
</g>
<!-- a02&#45;&gt;a03 -->
<g id="edge7" class="edge">
<title>a02:e-&gt;a03</title>
<path fill="none" stroke="#000000" stroke-width=".5" d="M177.6242,-190C177.6242,-190 246.7603,-119.6556 287.7118,-77.9884"/>
<polygon fill="#000000" stroke="#000000" stroke-width=".5" points="290.249,-80.4002 294.7623,-70.8148 285.2565,-75.4935 290.249,-80.4002"/>
</g>
<!-- a13 -->
<g id="node7" class="node">
<title>a13</title>
<ellipse fill="#1e90ff" stroke="#1e90ff" cx="317.1852" cy="-119" rx="31.9031" ry="31.9031"/>
<text text-anchor="start" x="302.0246" y="-115.8" font-family="Times,serif" font-size="14.00" fill="#000000">k</text>
<text text-anchor="start" x="309.0246" y="-115.8" font-family="Times,serif" baseline-shift="sub" font-size="14.00" fill="#000000">1</text>
<text text-anchor="start" x="316.0246" y="-115.8" font-family="Times,serif" baseline-shift="super" font-size="14.00" fill="#000000">(2)</text>
</g>
<!-- a02&#45;&gt;a13 -->
<g id="edge8" class="edge">
<title>a02:e-&gt;a13</title>
<path fill="none" stroke="#ff0000" stroke-width="2.5" d="M177.6242,-190C177.6242,-190 238.2575,-159.1535 279.5932,-138.1245"/>
<polygon fill="#ff0000" stroke="#ff0000" stroke-width="2.5" points="281.2803,-141.1931 288.6062,-133.5392 278.1062,-134.9541 281.2803,-141.1931"/>
<text text-anchor="start" x="204.5757" y="-178" font-family="Times,serif" font-size="10.00" fill="#0000ff">W</text>
<text text-anchor="start" x="214.0147" y="-178" font-family="Times,serif" baseline-shift="sub" font-size="10.00" fill="#0000ff">k0</text>
<text text-anchor="start" x="224.0147" y="-178" font-family="Times,serif" font-size="10.00" fill="#0000ff"> * X</text>
<text text-anchor="start" x="241.2337" y="-178" font-family="Times,serif" baseline-shift="sub" font-size="10.00" fill="#0000ff">k0</text>
</g>
<!-- a23 -->
<g id="node8" class="node">
<title>a23</title>
<ellipse fill="#1e90ff" stroke="#1e90ff" cx="317.1852" cy="-190" rx="31.9031" ry="31.9031"/>
<text text-anchor="start" x="302.0246" y="-186.8" font-family="Times,serif" font-size="14.00" fill="#000000">k</text>
<text text-anchor="start" x="309.0246" y="-186.8" font-family="Times,serif" baseline-shift="sub" font-size="14.00" fill="#000000">0</text>
<text text-anchor="start" x="316.0246" y="-186.8" font-family="Times,serif" baseline-shift="super" font-size="14.00" fill="#000000">(2)</text>
</g>
<!-- a02&#45;&gt;a23 -->
<g id="edge9" class="edge">
<title>a02:e-&gt;a23</title>
<path fill="none" stroke="#000000" stroke-width=".5" d="M177.6242,-190C177.6242,-190 234.0032,-190 275.0935,-190"/>
<polygon fill="#000000" stroke="#000000" stroke-width=".5" points="275.1671,-193.5001 285.1671,-190 275.1671,-186.5001 275.1671,-193.5001"/>
</g>
<!-- a12&#45;&gt;a03 -->
<g id="edge10" class="edge">
<title>a12:e-&gt;a03</title>
<path fill="none" stroke="#000000" stroke-width=".5" d="M177.6242,-119C177.6242,-119 238.2575,-88.1535 279.5932,-67.1245"/>
<polygon fill="#000000" stroke="#000000" stroke-width=".5" points="281.2803,-70.1931 288.6062,-62.5392 278.1062,-63.9541 281.2803,-70.1931"/>
</g>
<!-- a12&#45;&gt;a13 -->
<g id="edge11" class="edge">
<title>a12:e-&gt;a13</title>
<path fill="none" stroke="#ff0000" stroke-width="2.5" d="M177.6242,-119C177.6242,-119 234.0032,-119 275.0935,-119"/>
<polygon fill="#ff0000" stroke="#ff0000" stroke-width="2.5" points="275.1671,-122.5001 285.1671,-119 275.1671,-115.5001 275.1671,-122.5001"/>
<text text-anchor="start" x="204.5757" y="-123" font-family="Times,serif" font-size="10.00" fill="#0000ff">W</text>
<text text-anchor="start" x="214.0147" y="-123" font-family="Times,serif" baseline-shift="sub" font-size="10.00" fill="#0000ff">k1</text>
<text text-anchor="start" x="224.0147" y="-123" font-family="Times,serif" font-size="10.00" fill="#0000ff"> * X</text>
<text text-anchor="start" x="241.2337" y="-123" font-family="Times,serif" baseline-shift="sub" font-size="10.00" fill="#0000ff">k1</text>
</g>
<!-- a12&#45;&gt;a23 -->
<g id="edge12" class="edge">
<title>a12:e-&gt;a23</title>
<path fill="none" stroke="#000000" stroke-width=".5" d="M177.6242,-119C177.6242,-119 238.2575,-149.8465 279.5932,-170.8755"/>
<polygon fill="#000000" stroke="#000000" stroke-width=".5" points="278.1062,-174.0459 288.6062,-175.4608 281.2803,-167.8069 278.1062,-174.0459"/>
</g>
<!-- a22&#45;&gt;a03 -->
<g id="edge13" class="edge">
<title>a22:e-&gt;a03</title>
<path fill="none" stroke="#000000" stroke-width=".5" d="M177.6242,-48C177.6242,-48 234.0032,-48 275.0935,-48"/>
<polygon fill="#000000" stroke="#000000" stroke-width=".5" points="275.1671,-51.5001 285.1671,-48 275.1671,-44.5001 275.1671,-51.5001"/>
</g>
<!-- a22&#45;&gt;a13 -->
<g id="edge14" class="edge">
<title>a22:e-&gt;a13</title>
<path fill="none" stroke="#ff0000" stroke-width="2.5" d="M177.6242,-48C177.6242,-48 238.2575,-78.8465 279.5932,-99.8755"/>
<polygon fill="#ff0000" stroke="#ff0000" stroke-width="2.5" points="278.1062,-103.0459 288.6062,-104.4608 281.2803,-96.8069 278.1062,-103.0459"/>
<text text-anchor="start" x="204.5757" y="-87" font-family="Times,serif" font-size="10.00" fill="#0000ff">W</text>
<text text-anchor="start" x="214.0147" y="-87" font-family="Times,serif" baseline-shift="sub" font-size="10.00" fill="#0000ff">k2</text>
<text text-anchor="start" x="224.0147" y="-87" font-family="Times,serif" font-size="10.00" fill="#0000ff"> * X</text>
<text text-anchor="start" x="241.2337" y="-87" font-family="Times,serif" baseline-shift="sub" font-size="10.00" fill="#0000ff">k2</text>
</g>
<!-- a22&#45;&gt;a23 -->
<g id="edge15" class="edge">
<title>a22:e-&gt;a23</title>
<path fill="none" stroke="#000000" stroke-width=".5" d="M177.6242,-48C177.6242,-48 246.7603,-118.3444 287.7118,-160.0116"/>
<polygon fill="#000000" stroke="#000000" stroke-width=".5" points="285.2565,-162.5065 294.7623,-167.1852 290.249,-157.5998 285.2565,-162.5065"/>
</g>
<!-- O1 -->
<g id="node9" class="node">
<title>O1</title>
<ellipse fill="#ff7256" stroke="#ff7256" cx="440.5588" cy="-119" rx="20.3445" ry="20.3445"/>
<text text-anchor="start" x="433.7555" y="-115.8" font-family="Times,serif" font-size="14.00" fill="#000000">Y</text>
<text text-anchor="start" x="443.8621" y="-115.8" font-family="Times,serif" baseline-shift="sub" font-size="14.00" fill="#000000"> </text>
</g>
<!-- a03&#45;&gt;O1 -->
<g id="edge16" class="edge">
<title>a03:e-&gt;O1</title>
<path fill="none" stroke="#000000" stroke-width=".5" d="M349.1852,-48C349.1852,-48 389.2276,-79.1141 416.2973,-100.1481"/>
<polygon fill="#000000" stroke="#000000" stroke-width=".5" points="414.1791,-102.9346 424.2231,-106.3066 418.4742,-97.4071 414.1791,-102.9346"/>
</g>
<!-- a13&#45;&gt;O1 -->
<g id="edge17" class="edge">
<title>a13:e-&gt;O1</title>
<path fill="none" stroke="#000000" stroke-width=".5" d="M349.1852,-119C349.1852,-119 383.2279,-119 409.7553,-119"/>
<polygon fill="#000000" stroke="#000000" stroke-width=".5" points="409.8248,-122.5001 419.8247,-119 409.8247,-115.5001 409.8248,-122.5001"/>
</g>
<!-- a23&#45;&gt;O1 -->
<g id="edge18" class="edge">
<title>a23:e-&gt;O1</title>
<path fill="none" stroke="#000000" stroke-width=".5" d="M349.1852,-190C349.1852,-190 389.2276,-158.8859 416.2973,-137.8519"/>
<polygon fill="#000000" stroke="#000000" stroke-width=".5" points="418.4742,-140.5929 424.2231,-131.6934 414.1791,-135.0654 418.4742,-140.5929"/>
</g>
</g>
</svg>